# xmcd
#
# Track frame offsets:
# 182
# 21887
# 43725
# 61762
# 80202
# 100815
# 123222
# 165672
# 189115
#
# Disc length: 2618 seconds
#
# Revision: 0
# Processed by: cddbd v1.5.2PL0 Copyright (c) Steve Scherf et al.
# Submitted via: Audion 3.0.2 (http://www.panic.com/audion/)
#
DISCID=6a0a3809
DTITLE=Gugliemo Tasca - 'U pagghiaru
DYEAR=1900
DGENRE=
TTITLE0=Rusina mia
TTITLE1=Faiddi Arrivulati
TTITLE2=Canto L'Amuri
TTITLE3=Nun potta Siri
TTITLE4=Ti Vogghiu Sapiri
TTITLE5=A Mutunciana
TTITLE6=Nzo 'cchi Ci Voli
TTITLE7=3U mo Patruni
TTITLE8=Senza Riri Unni
EXTD=
EXTT0=
EXTT1=
EXTT2=
EXTT3=
EXTT4=
EXTT5=
EXTT6=
EXTT7=
EXTT8=
PLAYORDER=
